<svg width="26" height="26" viewBox="0 0 26 26" fill="none" xmlns="http://www.w3.org/2000/svg">
  <path fill-rule="evenodd" clip-rule="evenodd" d="M12.6464 0.625618C12.8417 0.430355 13.1583 0.430355 13.3536 0.625618L25.3744 12.6464C25.5696 12.8417 25.5696 13.1583 25.3744 13.3535L20.4246 18.3033C20.2294 18.4985 19.9128 18.4985 19.7175 18.3033L7.6967 6.28247C7.50144 6.08721 7.50144 5.77063 7.6967 5.57536L12.6464 0.625618ZM12.6464 14.7678C12.8417 14.5725 13.1583 14.5725 13.3536 14.7678L18.3033 19.7175C18.4986 19.9128 18.4986 20.2293 18.3033 20.4246L13.3536 25.3744C13.1583 25.5696 12.8417 25.5696 12.6464 25.3744L7.6967 20.4246C7.50144 20.2293 7.50144 19.9128 7.6967 19.7175L12.6464 14.7678ZM6.28249 7.69669C6.08722 7.50142 5.77064 7.50142 5.57538 7.69669L0.625632 12.6464C0.43037 12.8417 0.430369 13.1583 0.625632 13.3535L5.57538 18.3033C5.77064 18.4985 6.08722 18.4985 6.28249 18.3033L11.2322 13.3535C11.4275 13.1583 11.4275 12.8417 11.2322 12.6464L6.28249 7.69669Z" fill="white"/>
</svg>
