<svg width="78" height="78" viewBox="0 0 78 78" fill="none" xmlns="http://www.w3.org/2000/svg">
<path fill-rule="evenodd" clip-rule="evenodd" d="M28.7368 0L8.21053 13V46L0 56L17.4474 70L20.5263 68L28.7368 78H49.2632L57.4737 68L60.5526 70L78 56L69.7895 46V13L49.2632 0H28.7368ZM22 59C26.4183 59 30 55.4183 30 51C30 46.5817 26.4183 43 22 43C17.5817 43 14 46.5817 14 51C14 55.4183 17.5817 59 22 59ZM56 59C60.4183 59 64 55.4183 64 51C64 46.5817 60.4183 43 56 43C51.5817 43 48 46.5817 48 51C48 55.4183 51.5817 59 56 59ZM39 58L45 66L43 68L39 66L35 68L33 66L39 58Z" fill="#D6D7D6"/>
</svg>